<svg width="87" height="22" viewBox="0 0 87 22" fill="none" xmlns="http://www.w3.org/2000/svg">
  <path
    d="M1.841 13.4L2.521 3H4.241L3.641 11.8H10.841V3H12.641V17H10.841V13.4H1.841ZM15.034 15.4V4.6L16.634 3H24.034L25.634 4.6V15.4L24.034 17H16.634L15.034 15.4ZM16.834 4.6V15.4H23.834V4.6H16.834ZM27.6418 13.4L28.3218 3H30.0418L29.4418 11.8H36.6418V3H38.4418V17H36.6418V13.4H27.6418ZM43.6748 17V5.92H40.0348V3H50.6748V5.92H47.0348V17H43.6748ZM52.0401 17V3H61.8801V5.8H55.4001V8.52H60.8801V11.2H55.4001V14.2H62.0801V17H52.0401ZM63.5816 14.56V5.44L66.0216 3H73.0616V6.06H67.0616V13.94H73.2616V17H66.0216L63.5816 14.56ZM74.7549 17V3H78.1149V8.28H82.6349V3H85.9949V17H82.6349V11.32H78.1149V17H74.7549Z"
    fill="currentColor" />
</svg>